<svg xmlns="http://www.w3.org/2000/svg" viewBox="0 0 320 180" width="320" height="180" role="img" aria-label="Breakout">
  <g opacity="0.14" fill="#808080">
    <rect x="80" y="20" width="160" height="140" rx="6" />
  </g>
  <g fill="#4a7fb5">
    <g opacity="1">
      <rect x="88" y="32" width="34" height="12" rx="2" />
      <rect x="126" y="32" width="34" height="12" rx="2" />
      <rect x="164" y="32" width="34" height="12" rx="2" />
      <rect x="202" y="32" width="30" height="12" rx="2" />
    </g>
    <g opacity="0.78">
      <rect x="88" y="48" width="34" height="12" rx="2" />
      <rect x="126" y="48" width="34" height="12" rx="2" />
      <rect x="202" y="48" width="30" height="12" rx="2" />
    </g>
    <g opacity="0.56">
      <rect x="88" y="64" width="34" height="12" rx="2" />
      <rect x="164" y="64" width="34" height="12" rx="2" />
      <rect x="202" y="64" width="30" height="12" rx="2" />
    </g>
  </g>
  <circle cx="152" cy="104" r="7" fill="#808080" />
  <rect x="128" y="138" width="56" height="9" rx="4" fill="#808080" />
</svg>
